<mxfile host="app.diagrams.net" modified="2024-01-06T17:36:55.492Z" agent="Mozilla/5.0 (Windows NT 10.0; Win64; x64; rv:121.0) Gecko/20100101 Firefox/121.0" version="22.1.17" etag="fhT8JaFi61mNjQG8jUQq" type="github">
  <diagram name="Page-1" id="6NsgKziO3xzO3FifkJ6B">
    <mxGraphModel>
      <root>
        <mxCell id="0" />
        <mxCell id="1" parent="0" />
      </root>
    </mxGraphModel>
  </diagram>
</mxfile>
